# xmcd
#
# Track frame offsets:
#       150
#       16073
#       29608
#       42259
#       55752
#       72927
#       85137
#       100823
#       119300
#       133578
#       149376
#       164396
#       177483
#       191453
#       207076
#       229329
#       245889
#       264824
#       286102
#       308993
#
# Disc length: 4665 seconds
#
# Revision: 1
# Processed by: cddbd v1.4PL0 Copyright (c) Steve Scherf et al.
# Submitted via: MusiCat 1.1
#
DISCID=1b123714
DTITLE=Peter Green - Splinter Group
DYEAR=2000
DGENRE=
TTITLE0=Steady Rollin' Man
TTITLE1=From four till late
TTITLE2=Dead Shrimp Blues
TTITLE3=Little Queen of Spades
TTITLE4=They're Red Hot
TTITLE5=Preachin' Blues
TTITLE6=Hellhound on my Trail
TTITLE7=Travelling Riverside Blues
TTITLE8=Drunken Hearted Man
TTITLE9=Crossroads
TTITLE10=Come on in my Kitchen
TTITLE11=
TTITLE12=
TTITLE13=
TTITLE14=
TTITLE15=
TTITLE16=
TTITLE17=
TTITLE18=
TTITLE19=
EXTD=2000\n\n\nsubmitted by Stamppot
EXTT0=
EXTT1=
EXTT2=
EXTT3=
EXTT4=
EXTT5=
EXTT6=
EXTT7=
EXTT8=
EXTT9=
EXTT10=
EXTT11=
EXTT12=
EXTT13=
EXTT14=
EXTT15=
EXTT16=
EXTT17=
EXTT18=
EXTT19=
PLAYORDER=
